<svg width="126" height="197" viewBox="0 0 126 197" fill="none" xmlns="http://www.w3.org/2000/svg">
<path fill-rule="evenodd" clip-rule="evenodd" d="M59.5065 32.8627C57.4175 30.4107 56.0037 27.4057 56.2399 24.0386C56.9207 14.3369 70.4258 16.4711 73.0528 21.3677C75.6798 26.2643 75.3676 38.6849 71.9724 39.56C70.6184 39.909 67.734 39.0541 64.7984 37.2847L66.641 50.3208H55.7609L59.5065 32.8627Z" fill="#B28B67"/>
<path fill-rule="evenodd" clip-rule="evenodd" d="M66.8513 15.7242C65.4174 15.4891 61.5563 15.3274 60.8443 15.3275C60.3893 15.3275 59.8961 15.4315 59.6266 15.0136C59.4059 14.6715 59.4868 14.0928 59.4209 13.6958C59.3445 13.2346 59.2358 12.7793 59.1259 12.3252C58.8133 11.0329 58.3404 9.80347 57.6789 8.64919C56.4375 6.48362 54.6189 4.78732 52.3231 3.80025C49.7878 2.71037 46.9189 2.46081 44.1918 2.68188C41.2735 2.91839 38.6318 3.88177 35.8764 4.78837C33.2507 5.65228 30.5006 5.99233 27.7544 5.57045C24.9874 5.14543 22.8968 3.64578 20.5629 2.22242C18.1737 0.765243 15.4434 -0.187803 12.6189 0.0312798C9.98237 0.235854 7.55238 1.32448 5.37223 2.77874C3.33245 4.13936 1.64937 5.77638 0.699147 8.08034C-0.323084 10.5587 -0.322144 13.2791 1.35886 15.4694C3.79539 18.6443 8.31874 19.4653 12.082 19.3837C14.2587 19.3366 16.3965 18.9393 18.4516 18.2165C21.1923 17.2525 23.5606 15.6186 26.1246 14.2929C27.3279 13.6709 28.5717 13.1599 29.8754 12.7919C31.1405 12.4346 32.3865 12.2708 33.532 13.035C34.7437 13.8435 35.8295 14.6377 37.2157 15.1438C38.5455 15.6293 39.9541 15.9009 41.3709 15.89C44.1275 15.8687 46.8449 15.0098 49.5222 14.4345C51.7055 13.9654 54.0415 13.4979 56.2674 13.9488C57.1961 14.137 58.5528 14.5255 58.8883 15.4907C53.2422 16.514 51.0247 23.4967 52.6164 28.6226C53.4755 31.3893 58.6395 34.6235 60.6473 33.169C61.9193 32.2476 61.1471 31.0379 60.6473 30.2393C59.6902 28.71 59.3628 26.7456 61.1338 25.6808C62.6614 24.7626 64.2676 26.9432 64.298 26.9408C64.7178 26.9078 68.3458 24.856 70.8454 21.8619C73.3112 22.0081 73.6853 20.3822 73.0965 19.0525C72.5078 17.7228 68.8326 16.0494 66.8513 15.7242Z" fill="#191847"/>
<path fill-rule="evenodd" clip-rule="evenodd" d="M46.986 87.948C47.8035 99.1046 100.463 131.951 100.77 132.872C100.907 133.282 95.4433 146.23 84.3794 171.715L88.9827 173.504C105.953 146.513 114.002 131.579 113.13 128.703C111.883 124.586 98.2632 111.04 72.2724 88.0666L46.986 87.948Z" fill="#B28B67"/>
<path fill-rule="evenodd" clip-rule="evenodd" d="M85.5908 165.96L93.1064 168.696C108.954 150.815 115.166 136.061 114.033 128.544C113.278 123.533 99.7058 110.01 73.3161 87.9753L46.4471 87.9753C47.3638 113.812 96.1729 132.971 96.8257 134.072C97.4786 135.173 91.0538 145.956 85.5908 165.96Z" fill="#2F3676"/>
<path fill-rule="evenodd" clip-rule="evenodd" d="M82.6858 170.837C81.7461 171.935 81.1614 172.801 80.9315 173.432C80.6519 174.2 80.3718 175.368 80.0914 176.935L104.119 185.68C105.494 183.843 105.539 182.598 104.254 181.943C102.969 181.289 101.905 180.734 101.064 180.277L91.7083 171.234C91.5283 171.06 91.2413 171.065 91.0673 171.245C91.0643 171.248 91.0613 171.251 91.0585 171.254L89.7068 172.734C88.25 172.862 87.1323 172.784 86.3537 172.501C85.7211 172.271 84.9405 171.697 84.0118 170.781C83.6554 170.429 83.0814 170.433 82.7296 170.789C82.7144 170.804 82.6998 170.82 82.6858 170.837Z" fill="#E4E4E4"/>
<path fill-rule="evenodd" clip-rule="evenodd" d="M53.0408 87.948L29.5823 144.265L6.5262 191.876H11.9659L71.4798 87.948H53.0408Z" fill="#997659"/>
<path fill-rule="evenodd" clip-rule="evenodd" d="M6.20084 189.678C5.69367 191.032 5.44008 192.045 5.44008 192.718C5.44008 193.535 5.57627 194.728 5.84865 196.296H31.4179C32.0823 194.1 31.6988 192.914 30.2672 192.739C28.8356 192.563 27.6464 192.405 26.6995 192.264L14.8152 186.966C14.5865 186.864 14.3185 186.967 14.2165 187.196C14.2148 187.199 14.2131 187.203 14.2114 187.207L13.4475 189.06C12.1223 189.679 11.0453 189.988 10.2168 189.988C9.54359 189.988 8.61391 189.716 7.42774 189.172C6.97254 188.964 6.43437 189.163 6.2257 189.619C6.21671 189.638 6.20841 189.658 6.20084 189.678Z" fill="#E4E4E4"/>
<path fill-rule="evenodd" clip-rule="evenodd" d="M8.60827 181.986L20.6953 184.252C30.0409 170.513 69.1529 114.175 73.4411 87.948H46.5327C32.212 106.907 17.5166 168.019 8.60827 181.986Z" fill="#5C63AB"/>
<path fill-rule="evenodd" clip-rule="evenodd" d="M93.8414 75.5342L110.268 68.3203C113.146 65.4528 115.924 63.2734 118.604 61.7821C119.405 61.527 120.774 61.4499 119.314 63.5833C117.853 65.7167 116.413 68.0264 116.996 68.7741C117.58 69.5218 119.271 68.6966 119.939 69.9125C120.384 70.723 117.534 71.6927 111.389 72.8214L99.0866 82.2537L93.8414 75.5342ZM27.4308 77.5212L36.7206 79.3644C27.3782 96.775 22.368 106.003 21.6901 107.047C20.1648 109.398 21.5879 113.706 22.1136 115.974C18.8156 116.742 20.1162 111.778 15.9427 112.814C12.1333 113.76 8.90331 116.188 5.35117 112.914C4.91446 112.511 4.59476 111.253 6.08374 110.608C9.79334 109 15.274 105.989 16.1626 104.82C17.3745 103.227 21.1306 94.1268 27.4308 77.5212Z" fill="#B28B67"/>
<path fill-rule="evenodd" clip-rule="evenodd" d="M61.9694 42.7645L65.8894 42.0921C74.4278 50.3747 77.9121 70.2734 83.6023 72.9073C88.9821 75.3976 96.6084 72.9878 105.674 69.7339L108.45 75.9366C100.213 84.8474 82.6662 92.3757 75.5537 88.078C64.1823 81.2067 61.5572 56.6647 61.9694 42.7645Z" fill="#DB2721"/>
<path fill-rule="evenodd" clip-rule="evenodd" d="M44.8807 92.0281H79.5664C81.1514 92.0281 80.8527 89.7395 80.6236 88.5846C77.9793 75.2562 67.6571 60.8888 67.6571 41.9162L57.6521 40.3473C49.3767 53.6566 46.5149 70.0431 44.8807 92.0281Z" fill="#DDE3E9"/>
<path fill-rule="evenodd" clip-rule="evenodd" d="M41.4211 78.5336C34.3502 91.2882 28.4067 100.471 23.5907 106.082L16.3202 104.658C21.0035 75.6129 34.5657 54.1762 57.0067 40.3473H57.1209H60.9681C69.9499 70.9645 72.426 91.3648 68.3965 101.548H37.1739C37.6679 94.0969 39.2517 86.2168 41.4211 78.5336Z" fill="#FF4133"/>
</svg>
